<?xml version="1.0" encoding="UTF-8"?>
<svg id="Layer_1" xmlns="http://www.w3.org/2000/svg" version="1.1" viewBox="0 0 100 60">
  <!-- Generator: Adobe Illustrator 29.6.1, SVG Export Plug-In . SVG Version: 2.1.1 Build 9)  -->
  <defs>
    <style>
      .st0 {
        fill: #231f20;
      }

      .st1 {
        fill: #fff;
      }
    </style>
  </defs>
  <g>
    <rect class="st1" x="5" y="5" width="90" height="50"/>
    <path class="st0" d="M90,10v40H10V10h80M100,0H0v60h100V0h0Z"/>
  </g>
  <g>
    <path class="st1" d="M25,45h0Z"/>
    <polygon class="st0" points="30 20 20 20 20 50 30 50 30 20 30 20"/>
  </g>
  <g>
    <path class="st1" d="M45,45h0Z"/>
    <polygon class="st0" points="50 20 40 20 40 50 50 50 50 20 50 20"/>
  </g>
  <g>
    <rect class="st1" x="65" y="25" width="10" height="10"/>
    <polygon class="st0" points="80 20 60 20 60 40 80 40 80 20 80 20"/>
  </g>
</svg>